#!OML:ASF F:\VICON\USERDATA\INSTALL\rory3\rory3.ASF
:FULLY-SPECIFIED
:DEGREES
1032
root 0.499892 17.8424 3.65138 0.727321 170.342 1.25949
lowerback 20.0021 0.503838 -0.926319
upperback 1.87404 1.61586 5.65358
thorax -9.38088 1.18797 6.28079
lowerneck -11.8334 0.558148 -3.33637
upperneck 16.5063 2.80653 -4.83997
head 7.05267 0.916241 -0.724247
rclavicle -1.19271e-015 1.74931e-014
rhumerus -38.8455 -31.2724 -64.6413
rradius 54.5415
rwrist -36.2572
rhand -25.0057 -1.87074
rfingers 7.12502
rthumb 1.50606 -31.8452
lclavicle -1.19271e-015 1.74931e-014
lhumerus -42.7028 2.20233 87.0404
lradius 58.5088
lwrist 8.48051
lhand -11.7715 47.9208
lfingers 7.12502
lthumb 14.2772 77.41
rfemur -10.3634 2.70845 25.8739
rtibia 35.3754
rfoot -24.0937 -4.2595
rtoes 8.3707
lfemur -16.7291 -11.8385 -19.8816
ltibia 36.9628
lfoot -16.8382 -0.830164
ltoes -7.92566
1033
root 0.50935 17.8346 3.64384 0.705211 169.996 1.38018
lowerback 20.027 0.489395 -0.916434
upperback 2.0058 1.60724 5.65964
thorax -9.24695 1.18405 6.28069
lowerneck -11.4067 0.717513 -3.00835
upperneck 15.9854 2.93843 -5.10586
head 6.8177 0.993858 -0.853994
rclavicle -2.26615e-014 -2.22639e-014
rhumerus -40.0127 -30.6098 -64.9987
rradius 57.3744
rwrist -36.9776
rhand -25.6052 -1.48513
rfingers 7.12502
rthumb 0.927017 -31.4629
lclavicle -2.26615e-014 -2.22639e-014
lhumerus -43.0196 2.70684 86.6943
lradius 57.6256
lwrist 8.65676
lhand -11.9125 47.5664
lfingers 7.12502
lthumb 14.1413 77.0652
rfemur -10.4733 2.89564 26.0525
rtibia 35.5744
rfoot -23.978 -4.27649
rtoes 8.92515
lfemur -16.8156 -11.4497 -19.7744
ltibia 37.3494
lfoot -17.0711 -0.75173
ltoes -8.0487
1034
root 0.521514 17.8236 3.63709 0.782516 169.585 1.30877
lowerback 20.0629 0.560066 -1.12279
upperback 2.03262 1.64191 5.61239
thorax -9.24422 1.2039 6.33889
lowerneck -12.3059 0.949772 -3.18845
upperneck 16.8174 3.35239 -4.82307
head 7.24372 1.16947 -0.687522
rclavicle -2.50469e-014 -2.06736e-014
rhumerus -41.0032 -30.0616 -65.153
rradius 59.7066
rwrist -37.3392
rhand -25.5824 -0.745568
rfingers 7.12502
rthumb 0.949046 -30.7232
lclavicle -2.50469e-014 -2.06736e-014
lhumerus -43.5519 3.09325 86.4322
lradius 56.9308
lwrist 8.43636
lhand -12.1767 47.7052
lfingers 7.12502
lthumb 13.8867 77.2216
rfemur -10.7305 3.39422 26.0468
rtibia 35.804
rfoot -23.8676 -4.36533
rtoes 10.1524
lfemur -17.0069 -11.0676 -19.8417
ltibia 37.7023
lfoot -17.2815 -0.69822
ltoes -7.84704
1035
root 0.534628 17.8071 3.61581 0.628796 169.743 1.09147
lowerback 20.241 0.436525 -1.34103
upperback 2.02815 1.42566 5.56655
thorax -9.32302 1.10847 6.47941
lowerneck -12.4202 1.07019 -3.03032
upperneck 17.0249 3.53781 -4.93841
head 7.33823 1.25333 -0.731086
rclavicle 1.78906e-014 1.27222e-014
rhumerus -42.3356 -29.2133 -65.137
rradius 62.4271
rwrist -37.5263
rhand -25.8017 -0.317381
rfingers 7.12502
rthumb 0.737252 -30.2959
lclavicle 1.78906e-014 1.27222e-014
lhumerus -44.1954 3.43331 86.2173
lradius 56.2811
lwrist 8.18674
lhand -12.048 48.5847
lfingers 7.12502
lthumb 14.0108 78.0925
rfemur -10.5949 3.74675 25.9506
rtibia 36.0653
rfoot -24.0371 -4.74784
rtoes 11.0628
lfemur -16.9932 -10.9728 -20.098
ltibia 38.1116
lfoot -17.5821 -0.865901
ltoes -7.9832
1036
root 0.558313 17.788 3.58985 0.14498 170.81 1.14478
lowerback 20.7043 -0.078679 -1.25098
upperback 2.10259 0.80941 5.6086
thorax -9.4147 0.826403 6.656
lowerneck -12.4661 1.25634 -2.84515
upperneck 17.1114 3.77485 -4.99331
head 7.38103 1.37016 -0.75516
rclavicle -9.54166e-015 -7.15625e-014
rhumerus -43.2239 -29.102 -64.9113
rradius 64.0129
rwrist -36.6629
rhand -25.6456 0.578956
rfingers 7.12502
rthumb 0.888024 -29.3989
lclavicle -9.54166e-015 -7.15625e-014
lhumerus -44.7471 3.82234 85.9055
lradius 55.4382
lwrist 7.97141
lhand -11.6988 49.2897
lfingers 7.12502
lthumb 14.3472 78.774
rfemur -9.89934 3.66666 26.3264
rtibia 36.2609
rfoot -24.566 -5.71253
rtoes 11.9643
lfemur -16.7151 -11.4683 -20.0367
ltibia 38.6092
lfoot -17.6646 -1.3929
ltoes -7.72437
1037
root 0.576491 17.7702 3.58015 0.0520333 170.818 1.29807
lowerback 20.7531 -0.228295 -1.24223
upperback 2.27619 0.632482 5.62288
thorax -9.22521 0.743636 6.71211
lowerneck -12.5167 1.47854 -2.50795
upperneck 16.9994 4.01829 -5.13271
head 7.36439 1.49219 -0.831847
rclavicle 7.55382e-015 4.6118e-014
rhumerus -43.9388 -28.6894 -65.0341
rradius 66.1785
rwrist -36.1549
rhand -25.9567 0.765199
rfingers 7.12502
rthumb 0.587537 -29.2137
lclavicle 7.55382e-015 4.6118e-014
lhumerus -44.9062 4.10466 85.5821
lradius 54.4276
lwrist 7.88576
lhand -11.5855 49.5008
lfingers 7.12502
lthumb 14.4564 78.9773
rfemur -9.80099 3.82249 26.6256
rtibia 36.3965
rfoot -24.6793 -5.9735
rtoes 12.4363
lfemur -16.8767 -11.1992 -19.8277
ltibia 39.1517
lfoot -17.5123 -1.64978
ltoes -6.9059
1038
root 0.591998 17.7541 3.55864 -0.00966441 170.859 1.50561
lowerback 20.6814 -0.464041 -1.12076
upperback 2.35881 0.36302 5.66012
thorax -9.05971 0.611538 6.75369
lowerneck -11.5289 1.65506 -2.47035
upperneck 16.1575 4.13437 -5.15344
head 6.91846 1.58493 -0.845546
rclavicle 4.77083e-014 7.95139e-014
rhumerus -44.9095 -27.862 -65.2218
rradius 68.7558
rwrist -36.0603
rhand -26.6827 0.918539
rfingers 7.12502
rthumb -0.113656 -29.0612
lclavicle 4.77083e-014 7.95139e-014
lhumerus -45.3425 4.4452 85.2118
lradius 53.4777
lwrist 7.70211
lhand -11.4397 49.4935
lfingers 7.12502
lthumb 14.5969 78.9598
rfemur -9.65029 3.67133 26.912
rtibia 36.4329
rfoot -24.7647 -5.94362
rtoes 12.5652
lfemur -17.0226 -10.9001 -19.5862
ltibia 39.7049
lfoot -17.6731 -1.60418
ltoes -8.07795
1039
root 0.605449 17.7516 3.52818 -0.0636157 170.754 1.50906
lowerback 20.7106 -0.453851 -1.10823
upperback 2.47369 0.380274 5.61473
thorax -8.94962 0.617454 6.68656
lowerneck -12.0525 1.78498 -2.87583
upperneck 16.424 4.32158 -4.63857
head 7.07949 1.67119 -0.589746
rclavicle -2.18663e-014 -4.6118e-014
rhumerus -45.8316 -27.6304 -65.0974
rradius 71.231
rwrist -35.8969
rhand -27.0018 1.43419
rfingers 7.12502
rthumb -0.421785 -28.5451
lclavicle -2.18663e-014 -4.6118e-014
lhumerus -45.5123 4.41227 85.0323
lradius 52.5027
lwrist 7.35219
lhand -11.1977 49.998
lfingers 7.12502
lthumb 14.8301 79.4473
rfemur -9.51009 3.37738 26.8919
rtibia 36.4869
rfoot -24.8425 -5.60557
rtoes 12.6336
lfemur -17.0926 -10.6684 -19.6103
ltibia 40.2138
lfoot -17.9083 -1.26399
ltoes -9.40194
1040
root 0.611393 17.7511 3.50114 -0.117332 170.99 1.37217
lowerback 20.6814 -0.672872 -1.16464
upperback 2.35125 0.066238 5.59903
thorax -9.02947 0.466717 6.79462
lowerneck -10.7415 1.84995 -3.05359
upperneck 15.6972 4.32869 -4.59577
head 6.61073 1.7154 -0.564895
rclavicle 1.59028e-015 -4.77083e-014
rhumerus -47.1215 -26.8297 -64.7442
rradius 73.6733
rwrist -35.6436
rhand -27.3122 1.45759
rfingers 7.12502
rthumb -0.721658 -28.5209
lclavicle 1.59028e-015 -4.77083e-014
lhumerus -46.2327 4.70043 84.8431
lradius 51.4304
lwrist 7.09789
lhand -11.2505 49.8826
lfingers 7.12502
lthumb 14.7791 79.3356
rfemur -9.3872 2.67708 26.6646
rtibia 36.4852
rfoot -25.022 -5.19275
rtoes 12.3274
lfemur -17.272 -10.79 -19.8113
ltibia 40.7427
lfoot -17.9243 -1.19641
ltoes -8.94475
1041
root 0.620261 17.7373 3.47416 -0.134497 170.995 1.32025
lowerback 20.605 -0.672176 -1.11558
upperback 2.47442 0.0620643 5.47655
thorax -8.85039 0.454315 6.62126
lowerneck -10.8325 1.70026 -2.80431
upperneck 15.5592 4.0556 -4.60533
head 6.58319 1.5914 -0.633354
rclavicle -2.66371e-014 -4.92986e-014
rhumerus -48.0839 -26.7339 -64.6039
rradius 76.0824
rwrist -35.4583
rhand -27.6942 1.86066
rfingers 7.12502
rthumb -1.09058 -28.1163
lclavicle -2.66371e-014 -4.92986e-014
lhumerus -46.2005 4.43066 84.7424
lradius 50.058
lwrist 7.0534
lhand -11.8874 48.9668
lfingers 7.12502
lthumb 14.1656 78.4638
rfemur -9.26108 2.34216 26.5737
rtibia 36.4265
rfoot -25.0895 -5.01162
rtoes 11.378
lfemur -17.4995 -10.5789 -19.9001
ltibia 41.3639
lfoot -17.9003 -1.2271
ltoes -8.72858
1042
root 0.63472 17.7248 3.44769 -0.130047 170.857 1.69955
lowerback 20.6595 -0.698903 -0.885529
upperback 2.51247 0.109768 5.59124
thorax -8.84527 0.479064 6.60191
lowerneck -10.4304 1.91636 -2.32336
upperneck 15.2971 4.32767 -5.1059
head 6.45304 1.72823 -0.852602
rclavicle 1.19271e-015 -6.36111e-015
rhumerus -49.0377 -26.2369 -64.2806
rradius 78.4099
rwrist -35.7677
rhand -28.4317 2.48112
rfingers 7.12502
rthumb -1.80283 -27.491
lclavicle 1.19271e-015 -6.36111e-015
lhumerus -46.4419 4.50675 84.6377
lradius 48.875
lwrist 6.86357
lhand -11.8188 48.8384
lfingers 7.12502
lthumb 14.2316 78.3308
rfemur -9.04428 2.32125 27.0195
rtibia 36.2973
rfoot -25.147 -4.98939
rtoes 10.9257
lfemur -17.7869 -10.1324 -19.4896
ltibia 42.1267
lfoot -17.8487 -1.25234
ltoes -9.71934
1043
root 0.650079 17.72 3.43025 -0.109657 170.794 2.26944
lowerback 21.0278 -0.81565 -0.498231
upperback 2.41322 0.0922215 5.73733
thorax -9.15596 0.476991 6.56055
lowerneck -10.3046 2.00495 -2.38442
upperneck 15.4465 4.43068 -4.88576
head 6.47345 1.79179 -0.764461
rclavicle -1.39149e-014 3.65764e-014
rhumerus -50.0204 -25.6395 -63.9049
rradius 80.6028
rwrist -36.1292
rhand -29.4177 2.96736
rfingers 7.12502
rthumb -2.75515 -26.9946
lclavicle -1.39149e-014 3.65764e-014
lhumerus -46.8337 4.73366 84.3329
lradius 47.6753
lwrist 6.46514
lhand -11.2264 49.5038
lfingers 7.12502
lthumb 14.8024 78.9551
rfemur -8.849 2.22671 27.6887
rtibia 36.1563
rfoot -25.2299 -4.99411
rtoes 10.9689
lfemur -18.2433 -9.7191 -18.8315
ltibia 42.9794
lfoot -17.663 -1.45366
ltoes -9.8274
1044
root 0.659856 17.7232 3.40131 -0.103858 170.82 2.34152
lowerback 21.1359 -0.922451 -0.476257
upperback 2.36652 -0.0399152 5.73778
thorax -9.25105 0.415344 6.59204
lowerneck -10.266 2.0662 -2.51882
upperneck 15.5359 4.49196 -4.61531
head 6.48641 1.83237 -0.651464
rclavicle 3.1408e-014 -8.74653e-014
rhumerus -50.8471 -25.0001 -63.6705
rradius 82.8353
rwrist -35.8885
rhand -29.9676 3.36465
rfingers 7.12502
rthumb -3.28617 -26.5898
lclavicle 3.1408e-014 -8.74653e-014
lhumerus -47.1428 5.03851 84
lradius 46.3936
lwrist 5.84957
lhand -10.7143 50.1932
lfingers 7.12502
lthumb 15.2957 79.6076
rfemur -8.6723 1.92375 27.7515
rtibia 35.9746
rfoot -25.2721 -4.93487
rtoes 10.5211
lfemur -18.6966 -9.42723 -18.7802
ltibia 43.8266
lfoot -17.4263 -1.61275
ltoes -8.85513
1045
root 0.665149 17.7201 3.36394 -0.169035 170.896 2.03819
lowerback 20.8801 -0.981 -0.678029
upperback 2.46622 -0.19907 5.60591
thorax -8.98017 0.331038 6.59314
lowerneck -10.5373 2.07451 -2.83637
upperneck 15.7172 4.47643 -4.09643
head 6.57181 1.8331 -0.431982
rclavicle -2.62396e-014 4.6118e-014
rhumerus -51.4625 -24.5306 -63.618
rradius 85.0462
rwrist -34.6703
rhand -30.6101 3.78338
rfingers 7.12502
rthumb -3.90661 -26.1606
lclavicle -2.62396e-014 4.6118e-014
lhumerus -47.2172 5.13153 83.765
lradius 45.121
lwrist 5.42812
lhand -10.5291 50.2494
lfingers 7.12502
lthumb 15.4741 79.6501
rfemur -8.42643 1.56717 27.3812
rtibia 35.8152
rfoot -25.2646 -4.98426
rtoes 9.68278
lfemur -18.9972 -9.08322 -19.1981
ltibia 44.6242
lfoot -17.1853 -1.62538
ltoes -8.86612
